# xmcd
#
# Track frame offsets:
#	150
#	16441
#	29274
#	58225
#	69608
#	78265
#	91183
#	105028
#	119977
#	135227
#	145163
#	158958
#	177786
#	191112
#	200806
#	214351
#
# Disc length: 3089 seconds
#
# Revision: 1
# Processed by: cddbd v1.5.2PL0 Copyright (c) Steve Scherf et al.
# Submitted via: EasyCDDAExtractor 16.0.1.1
#
DISCID=e60c0f10
DTITLE=Ray Charles - The Very Best Of Ray Charles
DYEAR=19
DGENRE=Rhythm and Blues
TTITLE0=Ray Charles - Georgia On My Mind
TTITLE1=Ray Charles - Unchain My Heart
TTITLE2=Ray Charles - What'd I Say (Parts I and Ii)
TTITLE3=Ray Charles - Hallelujah I Love Her So
TTITLE4=Ray Charles - Hit The Road Jack
TTITLE5=Ray Charles - I've Got A Woman
TTITLE6=Ray Charles - A Fool For You
TTITLE7=Ray Charles - Drown In My Own Tears
TTITLE8=Ray Charles - (Night Time Is) The Right Time
TTITLE9=Ray Charles - Sticks And Stones
TTITLE10=Ray Charles - One Mint Julep
TTITLE11=Ray Charles - I Can't Stop Loving You
TTITLE12=Ray Charles - You Are My Sunshine
TTITLE13=Ray Charles - Busted
TTITLE14=Ray Charles - Let's Go Get Stoned
TTITLE15=Ray Charles and Willie Nelson - Seven Spanish Angels
EXTD=
EXTT0=
EXTT1=
EXTT2=
EXTT3=
EXTT4=
EXTT5=
EXTT6=
EXTT7=
EXTT8=
EXTT9=
EXTT10=
EXTT11=
EXTT12=
EXTT13=
EXTT14=
EXTT15=
PLAYORDER=
